<svg width="40" height="40" viewBox="0 0 40 40" fill="none" xmlns="http://www.w3.org/2000/svg">
<path d="M1.66699 1.66667H9.56533L12.9553 4.95501C15.1992 4.07307 17.5893 3.62241 20.0003 3.62667C22.427 3.62667 24.7503 4.07501 26.8753 4.88834L29.367 1.66667H38.3337V21.6667H38.3203C37.937 31.0183 29.7903 38.3333 20.0003 38.3333C10.2103 38.3333 2.06199 31.0183 1.68033 21.6667H1.66699V1.66667ZM5.00033 11C6.31887 9.23456 7.95036 7.72622 9.81366 6.55001L8.21366 5.00001H5.00033V11ZM5.00033 20.98C5.00033 28.63 11.6187 35 20.0003 35C28.382 35 35.0003 28.63 35.0003 20.98C35.0003 15.5333 31.6653 10.755 26.7003 8.43501C24.6016 7.45959 22.3146 6.95611 20.0003 6.96001C17.5853 6.96001 15.312 7.49334 13.3003 8.43501C8.33366 10.755 5.00033 15.5333 5.00033 20.98ZM35.0003 11V5.00001H31.0037L29.9287 6.39001C31.8989 7.58767 33.6206 9.1527 35.0003 11ZM15.0003 15V20H11.667V15H15.0003ZM28.3337 15V20H25.0003V15H28.3337ZM20.0003 18.7733L21.492 21.755C22.1237 23.0167 22.9203 23.3967 23.4737 23.4433C23.8337 23.4733 24.2187 23.38 24.587 23.1283L25.9653 22.1917L27.8387 24.9483L26.462 25.885C25.8763 26.2863 25.2142 26.5626 24.517 26.6967C24.1986 27.4919 23.8249 28.2637 23.3987 29.0067C23.0653 29.5733 22.6603 30.1683 22.1853 30.6433C21.752 31.0767 21.0053 31.6667 20.002 31.6667C18.9987 31.6667 18.252 31.075 17.8187 30.6433C17.3488 30.1495 16.9413 29.5998 16.6053 29.0067C16.1785 28.2638 15.8042 27.4919 15.4853 26.6967C14.7887 26.5624 14.1272 26.2861 13.542 25.885L12.1637 24.9483L14.0387 22.1917L15.417 23.1283C15.7853 23.38 16.1703 23.4733 16.5303 23.4433C17.0837 23.3967 17.8803 23.0167 18.512 21.755L20.0003 18.7733ZM18.8703 26.1283C19.0553 26.535 19.2637 26.9483 19.482 27.3217C19.6742 27.6461 19.8475 27.9028 20.002 28.0917C20.1575 27.9028 20.3309 27.6461 20.522 27.3217C20.7458 26.9344 20.9499 26.5361 21.1337 26.1283C20.7234 25.8957 20.3428 25.6142 20.0003 25.29C19.6589 25.614 19.2794 25.8955 18.8703 26.1283Z" fill="white"/>
</svg>
